<?xml version="1.0" encoding="UTF-8"?>
<!DOCTYPE svg PUBLIC "-//W3C//DTD SVG 1.1//EN" "http://www.w3.org/Graphics/SVG/1.1/DTD/svg11.dtd">
<!-- Creator: CorelDRAW 2017 -->
<svg xmlns="http://www.w3.org/2000/svg" xml:space="preserve" width="500mm" height="500mm" version="1.1" style="shape-rendering:geometricPrecision; text-rendering:geometricPrecision; image-rendering:optimizeQuality; fill-rule:evenodd; clip-rule:evenodd"
viewBox="0 0 50000 50000"
 xmlns:xlink="http://www.w3.org/1999/xlink">
 <defs>
  <style type="text/css">
   <![CDATA[
    .fil0 {fill:#00e5ff;fill-rule:nonzero}
   ]]>
  </style>
 </defs>
 <g id="Layer_x0020_1">
  <metadata id="CorelCorpID_0Corel-Layer"/>
  <path class="fil0" d="M25345 29069c-89,-88 -211,-143 -345,-143 -134,0 -257,55 -345,143 -88,89 -142,211 -142,345 0,135 54,257 142,344 89,89 211,143 345,143 135,0 257,-54 345,-143 88,-88 142,-210 142,-344 0,-135 -54,-257 -142,-345l0 0zm-345 -731c297,0 566,120 762,315 194,195 315,464 315,761 0,297 -121,565 -315,760 -195,195 -464,315 -762,315 -297,0 -566,-120 -761,-315 -194,-195 -315,-463 -315,-760 0,-297 121,-566 315,-761 195,-195 464,-315 761,-315l0 0zm2257 -26703c24,-160 174,-269 334,-244 161,24 270,174 245,334 -48,305 -203,647 -461,939 -218,247 -511,462 -875,590 -152,53 -320,-27 -374,-179 -54,-154 26,-321 179,-376 264,-93 475,-246 631,-424 182,-205 289,-437 321,-639l0 0zm-4514 46524c-24,160 -174,269 -334,245 -161,-25 -270,-175 -245,-335 48,-305 203,-647 461,-939 218,-247 511,-462 875,-590 152,-53 320,27 374,179 54,153 -26,321 -179,376 -264,93 -475,247 -631,425 -182,204 -289,437 -321,639l0 0zm6533 -46238c39,-157 197,-255 355,-216 158,40 255,198 215,356 -74,299 -259,626 -540,895 -239,227 -549,414 -924,511 -157,40 -317,-56 -357,-212 -40,-157 54,-317 212,-357 268,-69 492,-205 664,-368 198,-189 325,-411 376,-609l0 0zm-8551 45953c-39,156 -197,253 -355,215 -158,-39 -255,-198 -215,-356 74,-299 259,-626 540,-894 239,-227 549,-415 924,-511 157,-41 317,54 357,211 40,157 -54,317 -212,357 -268,69 -492,204 -664,368 -198,189 -325,411 -375,610l0 0zm10537 -45495c52,-153 220,-236 374,-182 153,52 236,220 183,373 -100,291 -312,601 -617,844 -257,204 -583,365 -965,429 -161,26 -311,-83 -337,-243 -26,-160 82,-311 242,-337 274,-45 509,-161 695,-309 213,-170 360,-381 427,-575l0 0zm-12523 45035c-52,153 -220,236 -373,183 -153,-52 -236,-220 -183,-373 100,-291 312,-600 617,-844 257,-204 583,-365 965,-428 161,-26 311,82 337,242 26,161 -82,311 -242,337 -274,46 -509,161 -695,309 -213,170 -360,381 -427,575l0 0zm14462 -44404c67,-148 240,-214 388,-148 148,66 214,240 148,387 -125,282 -363,572 -687,786 -275,183 -613,314 -999,343 -162,13 -303,-109 -315,-271 -11,-162 110,-302 271,-315 277,-21 521,-116 719,-247 228,-151 392,-347 476,-535l0 0zm-16401 43772c-67,148 -240,215 -388,148 -148,-66 -214,-239 -148,-387 125,-282 363,-572 687,-786 275,-183 613,-314 999,-343 162,-12 302,109 315,271 12,162 -110,304 -271,315 -278,22 -522,116 -719,247 -228,151 -392,348 -476,535l0 0zm18277 -42975c79,-142 257,-193 399,-114 142,78 192,257 114,398 -149,269 -412,537 -753,723 -290,157 -638,259 -1024,255 -162,-1 -292,-133 -291,-295 2,-162 134,-292 296,-291 279,3 530,-70 739,-184 240,-130 421,-313 520,-492l0 0zm-20154 42177c-79,142 -258,193 -400,114 -142,-78 -192,-258 -114,-398 149,-269 412,-537 753,-723 290,-157 638,-259 1024,-254 162,1 292,133 291,295 -2,162 -133,292 -296,291 -278,-3 -530,70 -738,184 -240,130 -421,313 -520,492l0 0zm21953 -41218c91,-134 273,-170 408,-79 134,91 170,273 79,408 -171,255 -457,499 -814,655 -302,131 -658,201 -1042,164 -161,-15 -279,-157 -265,-319 16,-162 159,-280 320,-265 277,27 534,-23 752,-118 250,-109 446,-275 561,-445l0 0zm-23752 40260c-91,135 -273,170 -408,79 -135,-91 -170,-273 -79,-408 171,-255 457,-499 814,-655 303,-131 658,-201 1042,-164 162,15 279,159 265,319 -16,162 -159,280 -320,265 -277,-27 -534,23 -752,118 -250,110 -446,275 -561,445l0 0zm25462 -39148c102,-126 288,-145 413,-43 126,102 145,287 43,413 -193,239 -499,457 -868,581 -312,105 -673,144 -1052,73 -159,-30 -265,-183 -235,-343 29,-159 183,-264 342,-234 274,51 534,23 759,-52 259,-87 469,-235 598,-394l0 0zm-27171 38036c-102,126 -288,145 -413,43 -126,-102 -145,-287 -43,-413 193,-239 499,-457 868,-580 312,-105 673,-145 1052,-74 160,30 265,184 235,343 -29,160 -184,264 -342,235 -274,-51 -534,-23 -759,52 -259,88 -468,235 -598,394l0 0zm28777 -36779c113,-117 298,-120 415,-8 117,113 121,298 8,415 -214,222 -537,413 -916,504 -320,77 -683,85 -1055,-19 -157,-43 -248,-204 -205,-361 43,-157 205,-248 361,-205 269,75 530,70 760,14 266,-64 488,-193 630,-340l0 0zm-30382 35522c-113,117 -298,121 -415,8 -117,-113 -121,-298 -8,-415 214,-222 537,-412 916,-504 320,-77 683,-86 1055,19 156,43 248,204 204,361 -43,156 -204,248 -361,204 -269,-75 -530,-70 -760,-14 -266,64 -488,193 -630,340l0 0zm31874 -34132c122,-106 307,-92 414,30 105,123 92,308 -30,414 -233,202 -570,364 -955,422 -325,49 -688,24 -1050,-112 -152,-57 -229,-227 -172,-379 57,-152 227,-228 379,-171 260,97 520,115 756,79 271,-41 504,-150 658,-285l0 0zm-33365 32741c-122,105 -308,92 -414,-30 -105,-123 -92,-308 30,-414 233,-202 571,-364 955,-421 324,-49 687,-25 1049,111 152,57 228,227 172,379 -57,152 -227,228 -379,171 -260,-97 -520,-115 -756,-79 -271,42 -504,150 -658,285l0 0zm34727 -31225c132,-95 315,-66 411,66 95,132 66,315 -66,410 -248,182 -600,313 -990,337 -328,21 -685,-35 -1035,-202 -146,-70 -207,-245 -138,-391 70,-146 245,-207 391,-138 250,120 509,160 747,145 272,-17 513,-106 679,-226l0 0zm-36089 29708c-131,96 -315,66 -411,-66 -95,-131 -66,-315 66,-410 248,-180 600,-313 990,-337 328,-21 685,36 1035,202 146,70 208,245 138,391 -70,146 -245,208 -391,138 -250,-120 -509,-160 -747,-145 -272,18 -513,105 -679,226l0 0zm37316 -28079c139,-83 319,-37 403,101 83,140 37,319 -101,403 -264,158 -625,258 -1013,249 -331,-8 -683,-95 -1016,-291 -140,-82 -186,-263 -103,-403 82,-140 263,-185 403,-103 240,142 494,205 730,211 273,6 521,-60 698,-167l0 0zm-38543 26450c-139,83 -319,38 -403,-101 -83,-139 -38,-319 101,-403 264,-159 625,-259 1013,-249 331,8 683,95 1016,291 140,82 186,263 103,403 -82,140 -263,187 -403,103 -240,-142 -493,-204 -730,-210 -273,-7 -522,59 -698,166l0 0zm39621 -24720c146,-71 322,-10 394,136 71,146 10,322 -136,393 -277,136 -645,203 -1032,161 -328,-38 -671,-155 -986,-379 -132,-95 -163,-278 -69,-410 94,-132 277,-163 410,-69 227,162 474,246 709,273 272,30 525,-15 709,-106l0 0zm-40700 22991c-146,71 -322,10 -393,-136 -71,-146 -10,-322 136,-393 276,-136 645,-203 1032,-161 327,38 671,154 986,380 131,94 163,276 69,409 -94,133 -277,163 -410,69 -226,-162 -474,-246 -709,-273 -272,-30 -525,15 -709,105l0 0zm41625 -21172c151,-58 320,18 379,169 57,151 -19,320 -169,378 -288,111 -660,147 -1041,70 -324,-66 -656,-212 -949,-463 -123,-105 -138,-290 -32,-413 105,-124 291,-138 414,-32 212,182 451,287 682,334 269,54 525,32 717,-42l0 0zm-42550 19353c-151,58 -320,-18 -379,-169 -57,-150 19,-320 169,-378 288,-111 660,-147 1041,-70 324,66 656,212 949,463 123,105 138,290 32,414 -105,123 -291,137 -414,31 -212,-181 -451,-287 -682,-334 -269,-54 -525,-31 -717,42l0 0zm43313 -17463c157,-45 319,46 363,202 45,155 -46,318 -202,363 -295,85 -670,89 -1043,-22 -316,-94 -634,-268 -904,-544 -114,-115 -113,-301 3,-415 116,-114 301,-112 415,4 195,199 424,324 652,392 262,77 519,76 717,20l0 0zm-44075 15574c-156,44 -319,-47 -363,-202 -45,-156 46,-319 202,-364 295,-84 670,-88 1043,22 316,94 634,268 904,544 114,116 113,301 -3,415 -116,114 -301,112 -415,-4 -195,-198 -423,-324 -652,-392 -262,-77 -518,-76 -717,-19l0 0zm44670 -13623c160,-31 314,74 344,233 30,160 -74,314 -233,344 -302,58 -675,29 -1037,-113 -307,-120 -608,-322 -854,-622 -102,-125 -84,-310 41,-412 125,-103 310,-86 413,40 176,215 393,360 614,446 255,100 511,122 712,83l0 0zm-45264 11673c-160,30 -314,-74 -344,-234 -30,-160 74,-314 234,-344 301,-58 675,-29 1037,113 307,120 608,322 854,622 102,125 84,310 -41,413 -125,102 -310,84 -413,-41 -176,-215 -393,-360 -614,-446 -255,-100 -511,-122 -712,-82l0 0zm45686 -9678c162,-17 306,101 322,263 17,161 -101,305 -262,321 -306,32 -675,-29 -1023,-201 -296,-147 -579,-375 -798,-695 -91,-133 -57,-316 77,-408 135,-92 317,-57 409,77 157,229 360,393 571,498 246,122 498,166 703,144l0 0zm-46109 7683c-162,17 -306,-101 -322,-263 -17,-161 101,-305 262,-321 306,-32 675,29 1023,202 296,147 579,374 798,694 91,133 56,317 -77,408 -135,92 -317,57 -409,-77 -156,-229 -360,-393 -572,-498 -246,-122 -499,-167 -703,-145l0 0zm46356 -5659c162,-2 295,127 298,289 2,162 -127,295 -289,297 -307,6 -671,-88 -1002,-290 -282,-172 -545,-424 -734,-760 -79,-142 -28,-321 113,-401 142,-79 321,-29 400,113 137,243 325,424 527,547 235,143 482,210 687,206l0 0zm-46603 3634c-162,2 -295,-126 -298,-289 -2,-162 127,-295 289,-297 308,-5 671,88 1002,290 282,172 544,423 734,760 79,142 28,321 -113,401 -142,79 -321,29 -401,-113 -137,-242 -325,-424 -527,-547 -235,-143 -482,-209 -687,-205l0 0zm46671 -1597c163,10 285,151 274,313 -10,162 -151,285 -313,273 -307,-21 -661,-146 -975,-378 -265,-196 -504,-469 -665,-821 -67,-148 0,-322 148,-389 147,-67 321,-1 388,147 115,254 287,451 478,591 220,162 460,248 664,263l0 0zm-46739 -440c-163,-10 -285,-151 -274,-313 10,-162 151,-285 313,-273 307,21 661,146 975,378 265,196 504,469 664,821 67,148 0,322 -147,389 -148,67 -322,1 -389,-147 -115,-253 -287,-451 -478,-591 -220,-162 -460,-248 -664,-263l0 0zm46631 2477c160,24 269,174 244,334 -24,161 -174,270 -334,245 -305,-48 -646,-203 -939,-461 -247,-218 -462,-511 -590,-875 -53,-152 27,-320 179,-374 153,-54 321,26 376,179 93,264 246,475 424,631 205,181 437,289 639,321l0 0zm-46524 -4514c-160,-24 -269,-174 -244,-334 24,-161 174,-270 334,-245 305,48 647,203 939,461 247,218 462,511 590,875 53,152 -27,320 -179,374 -153,54 -321,-26 -375,-179 -93,-264 -246,-475 -425,-631 -204,-180 -437,-289 -639,-321l0 0zm46238 6533c157,39 255,197 216,355 -40,157 -198,255 -356,216 -299,-75 -626,-260 -895,-541 -226,-239 -414,-549 -510,-924 -41,-158 54,-317 210,-357 158,-40 317,54 357,212 69,268 205,492 368,664 189,198 411,325 609,375l0 0zm-45952 -8551c-158,-39 -255,-197 -216,-355 40,-157 198,-254 356,-215 299,74 626,259 895,540 226,239 414,549 510,924 41,157 -54,317 -211,357 -157,41 -317,-54 -357,-212 -69,-268 -204,-492 -368,-664 -189,-198 -411,-325 -609,-375l0 0zm45494 10537c153,52 236,220 182,373 -52,153 -220,236 -373,183 -291,-100 -601,-312 -844,-617 -205,-257 -365,-583 -429,-965 -26,-161 83,-311 243,-337 160,-26 311,82 337,242 46,274 160,509 309,695 170,213 381,360 575,427l0 0zm-45035 -12523c-153,-52 -236,-220 -183,-373 52,-153 220,-236 373,-183 291,100 601,312 844,617 204,257 365,583 429,965 26,161 -83,311 -243,337 -160,26 -311,-82 -337,-242 -46,-274 -161,-509 -309,-695 -170,-213 -381,-360 -575,-427l0 0zm44404 14462c148,67 215,240 148,388 -66,148 -239,214 -387,148 -282,-125 -572,-363 -786,-687 -183,-275 -314,-613 -344,-999 -12,-162 110,-302 271,-315 162,-11 302,110 315,271 22,277 116,521 247,719 151,228 347,392 535,476l0 0zm-43772 -16401c-148,-67 -215,-240 -148,-388 66,-148 239,-214 387,-148 282,125 572,363 786,687 183,275 314,613 343,999 13,162 -110,302 -271,315 -162,13 -302,-110 -315,-271 -22,-277 -116,-522 -247,-719 -151,-228 -347,-392 -535,-476l0 0zm42975 18277c142,79 193,258 114,399 -78,142 -257,192 -398,114 -269,-149 -537,-412 -723,-753 -158,-290 -259,-637 -255,-1024 1,-162 133,-292 295,-291 162,2 292,133 291,296 -3,278 70,530 183,739 131,240 313,421 493,520l0 0zm-42177 -20154c-142,-79 -193,-257 -114,-399 78,-141 258,-192 398,-114 269,149 537,412 723,753 157,290 259,638 255,1024 -1,162 -134,292 -295,291 -162,-2 -292,-133 -291,-296 3,-279 -70,-530 -184,-739 -130,-240 -313,-421 -492,-520l0 0zm41218 21953c134,91 170,273 79,408 -91,135 -273,170 -408,79 -255,-171 -499,-457 -655,-814 -132,-302 -201,-658 -164,-1042 15,-162 158,-280 319,-265 162,16 280,159 265,320 -27,277 23,534 118,752 109,250 275,446 445,561l0 0zm-40260 -23752c-135,-91 -170,-273 -79,-408 91,-134 273,-170 408,-79 255,171 499,457 655,813 131,303 201,658 164,1042 -15,161 -159,279 -319,265 -162,-16 -280,-158 -265,-320 27,-277 -23,-534 -118,-752 -110,-250 -275,-446 -445,-561l0 0zm39148 25462c126,102 145,288 43,413 -102,126 -287,145 -413,43 -239,-193 -457,-499 -581,-868 -105,-312 -144,-673 -73,-1052 30,-160 183,-265 343,-235 159,29 264,184 234,342 -51,274 -23,534 52,759 88,259 235,468 394,598l0 0zm-38036 -27171c-126,-102 -145,-288 -43,-413 102,-126 287,-145 413,-43 239,194 457,499 581,868 104,312 144,673 73,1052 -30,160 -184,265 -343,235 -160,-29 -264,-182 -235,-342 51,-274 23,-534 -52,-759 -88,-259 -235,-469 -394,-598l0 0zm36779 28777c117,113 121,298 8,415 -113,117 -298,121 -415,8 -222,-214 -413,-537 -504,-916 -77,-320 -86,-683 19,-1055 43,-156 204,-248 361,-204 157,43 248,204 205,361 -75,269 -70,530 -14,760 64,266 193,488 340,630l0 0zm-35522 -30382c-117,-113 -121,-298 -8,-415 113,-117 298,-120 415,-8 222,214 413,537 504,916 77,320 86,683 -19,1055 -43,157 -204,248 -361,204 -156,-43 -248,-204 -204,-361 75,-268 70,-530 14,-760 -64,-266 -193,-487 -340,-630l0 0zm34132 31873c105,122 92,308 -30,414 -123,105 -308,92 -414,-30 -203,-233 -364,-571 -422,-954 -49,-325 -24,-687 111,-1050 57,-152 228,-228 379,-172 152,57 229,227 171,379 -97,260 -115,520 -79,756 41,271 150,504 285,658l0 0zm-32741 -33365c-105,-122 -92,-307 30,-414 123,-106 308,-92 414,30 202,232 364,570 422,956 49,325 24,687 -112,1049 -57,152 -227,229 -379,172 -152,-57 -228,-227 -171,-379 97,-260 115,-520 79,-756 -41,-271 -150,-504 -285,-658l0 0zm31225 34727c95,132 66,316 -66,411 -132,95 -315,66 -410,-66 -180,-248 -313,-600 -337,-990 -21,-327 35,-685 202,-1035 70,-146 245,-208 391,-138 146,70 207,245 138,391 -120,250 -160,509 -145,747 18,272 106,513 226,679l0 0zm-29708 -36089c-95,-132 -66,-315 66,-411 131,-95 315,-66 410,66 180,248 313,600 337,990 21,328 -35,685 -202,1035 -70,146 -245,207 -391,138 -146,-70 -208,-245 -138,-391 120,-250 160,-509 145,-747 -18,-272 -105,-513 -226,-679l0 0zm28079 37316c83,139 37,319 -101,403 -140,83 -319,38 -403,-101 -158,-264 -259,-625 -249,-1013 8,-331 95,-683 291,-1016 82,-140 263,-186 403,-103 140,82 186,263 103,403 -142,240 -204,493 -210,730 -6,273 60,521 167,698l0 0zm-26450 -38543c-83,-139 -38,-319 101,-403 140,-83 319,-38 403,101 159,264 259,625 249,1013 -8,331 -95,683 -291,1016 -82,140 -263,186 -403,103 -140,-82 -186,-263 -103,-403 142,-240 204,-494 211,-730 6,-273 -61,-521 -167,-698l0 0zm24720 39621c71,146 11,322 -135,393 -146,71 -322,10 -393,-136 -136,-276 -204,-645 -161,-1032 38,-328 154,-671 380,-986 94,-131 277,-163 409,-69 132,94 163,277 69,410 -162,226 -246,474 -273,709 -30,272 15,525 105,709l0 0zm-22991 -40700c-71,-146 -10,-322 136,-394 146,-71 322,-10 393,136 136,276 203,645 161,1032 -37,328 -154,671 -380,986 -94,132 -276,163 -409,69 -132,-94 -163,-278 -69,-410 162,-226 246,-473 273,-709 30,-272 -15,-525 -105,-709l0 0zm21172 41625c58,151 -18,320 -169,379 -151,57 -320,-18 -378,-169 -111,-288 -147,-660 -70,-1041 66,-324 212,-656 463,-949 105,-123 290,-138 414,-32 123,105 137,291 31,414 -181,212 -287,451 -333,682 -55,269 -32,525 42,717l0 0zm-19353 -42550c-58,-151 18,-320 169,-379 151,-57 320,19 378,169 110,288 147,660 70,1041 -66,324 -212,656 -463,949 -105,123 -290,138 -414,32 -123,-105 -137,-291 -31,-414 182,-212 287,-451 334,-682 54,-269 31,-525 -42,-717l0 0zm17463 43313c45,156 -46,319 -202,363 -155,45 -318,-46 -363,-202 -84,-295 -88,-670 22,-1043 94,-316 268,-634 545,-904 116,-114 301,-113 415,3 114,116 112,301 -4,415 -199,195 -324,424 -392,652 -77,262 -76,518 -20,717l0 0zm-15573 -44075c-45,-157 46,-319 202,-363 155,-45 318,46 363,202 85,295 88,670 -22,1043 -94,316 -268,634 -544,904 -116,114 -301,113 -415,-3 -114,-116 -112,-301 4,-415 199,-195 324,-424 392,-651 77,-263 76,-520 20,-718l0 0zm13622 44670c31,160 -74,314 -233,344 -160,30 -314,-74 -344,-234 -58,-301 -29,-675 113,-1037 120,-307 322,-608 622,-854 125,-102 310,-84 413,41 102,125 84,310 -41,413 -215,176 -360,393 -446,614 -100,254 -122,511 -83,712l0 0zm-11672 -45264c-31,-160 74,-314 233,-344 160,-30 314,74 344,233 58,302 29,675 -113,1037 -120,307 -322,608 -622,854 -125,102 -310,85 -413,-41 -102,-125 -85,-310 41,-413 215,-176 360,-393 446,-614 100,-255 122,-511 83,-712l0 0zm9677 45688c17,161 -101,305 -263,321 -161,17 -305,-101 -321,-262 -32,-306 29,-675 202,-1023 147,-296 374,-579 694,-798 133,-91 316,-56 408,77 92,134 57,317 -77,409 -229,156 -393,360 -499,572 -122,246 -166,499 -144,704l0 0zm-7683 -46110c-17,-162 101,-306 263,-322 161,-17 305,101 321,262 32,306 -29,676 -202,1023 -147,296 -374,579 -694,798 -133,91 -316,57 -408,-77 -92,-135 -57,-317 77,-408 229,-157 393,-361 499,-573 122,-245 166,-499 144,-703l0 0zm5658 46356c2,162 -126,295 -289,298 -162,2 -295,-127 -297,-289 -5,-308 88,-671 290,-1002 172,-282 424,-543 760,-734 142,-79 321,-28 401,114 79,141 29,320 -113,399 -243,137 -423,325 -547,527 -143,235 -209,483 -205,687l0 0zm-3634 -46603c-2,-162 126,-295 289,-298 162,-2 295,127 297,289 5,307 -88,671 -290,1002 -172,282 -424,545 -760,734 -142,79 -321,28 -401,-113 -79,-142 -29,-321 113,-400 243,-137 424,-324 547,-527 143,-233 209,-482 205,-687l0 0zm1597 46672c-10,162 -151,284 -313,273 -162,-10 -285,-151 -273,-313 21,-307 146,-661 378,-975 196,-265 469,-504 821,-664 148,-66 322,0 389,148 67,147 1,321 -147,388 -253,116 -451,287 -591,478 -162,220 -248,461 -263,666l0 0zm440 -46740c10,-163 151,-285 313,-274 162,11 285,151 273,313 -21,307 -146,661 -378,975 -196,265 -469,505 -821,664 -148,67 -322,0 -389,-147 -67,-148 -1,-322 147,-389 254,-115 451,-287 591,-478 162,-219 248,-460 263,-664l0 0zm12763 10490c-3323,-3322 -7912,-5377 -12983,-5377 -5070,0 -9660,2055 -12983,5377 -3322,3323 -5377,7912 -5377,12983 0,5070 2055,9660 5377,12983 3323,3322 7912,5377 12983,5377 5070,0 9660,-2055 12983,-5377 3322,-3323 5377,-7912 5377,-12983 0,-5070 -2055,-9660 -5377,-12983l0 0zm-12983 -5745c5172,0 9854,2097 13243,5485 3389,3389 5485,8071 5485,13242 0,5171 -2097,9854 -5485,13243 -3389,3389 -8071,5485 -13243,5485 -5171,0 -9854,-2096 -13243,-5485 -3389,-3389 -5485,-8071 -5485,-13243 0,-5171 2097,-9854 5485,-13242 3389,-3389 8071,-5485 13243,-5485l0 0zm-3477 16177c-89,-89 -211,-143 -345,-143 -134,0 -257,54 -344,143 -89,88 -143,210 -143,344 0,135 54,257 143,345 88,88 210,143 344,143 135,0 257,-55 345,-143 88,-89 143,-211 143,-345 0,-134 -55,-257 -143,-344l0 0zm-345 -732c297,0 566,121 761,316 195,194 315,463 315,760 0,297 -120,566 -315,761 -195,195 -464,315 -761,315 -297,0 -566,-120 -760,-315 -195,-195 -316,-464 -316,-761 0,-297 121,-566 316,-760 194,-195 463,-316 760,-316l0 0zm345 5145c-89,-88 -211,-143 -345,-143 -134,0 -257,55 -344,143 -89,89 -143,211 -143,345 0,135 54,257 143,344 88,89 210,143 344,143 135,0 257,-54 345,-143 88,-88 143,-210 143,-344 0,-134 -55,-257 -143,-345l0 0zm-345 -731c297,0 566,120 761,315 195,195 315,464 315,761 0,297 -120,566 -315,760 -195,195 -464,316 -761,316 -297,0 -566,-121 -760,-316 -195,-194 -316,-463 -316,-760 0,-297 121,-566 316,-761 194,-195 463,-315 760,-315l0 0zm7990 731c-88,-88 -210,-143 -344,-143 -134,0 -257,55 -345,143 -88,89 -143,211 -143,345 0,135 55,257 143,344 89,89 211,143 345,143 135,0 257,-54 344,-143 89,-88 143,-210 143,-344 0,-134 -54,-257 -143,-345l0 0zm-344 -731c297,0 566,120 760,315 195,195 316,464 316,761 0,297 -121,566 -316,760 -194,195 -463,316 -760,316 -297,0 -566,-121 -761,-316 -195,-194 -315,-463 -315,-760 0,-297 120,-566 315,-761 195,-195 464,-315 761,-315l0 0zm344 -3682c-88,-89 -210,-143 -344,-143 -134,0 -257,54 -345,143 -88,88 -143,210 -143,344 0,135 55,257 143,345 89,88 211,143 345,143 135,0 257,-55 344,-143 89,-89 143,-211 143,-345 0,-134 -54,-257 -143,-344l0 0zm-344 -732c297,0 566,121 760,316 195,194 316,463 316,760 0,297 -121,566 -316,761 -194,195 -463,315 -760,315 -297,0 -566,-120 -761,-315 -195,-195 -315,-464 -315,-761 0,-297 120,-566 315,-760 195,-195 464,-316 761,-316l0 0zm-3478 -1475c-89,-89 -211,-143 -345,-143 -134,0 -257,54 -345,143 -88,88 -142,210 -142,344 0,135 54,257 142,345 89,88 211,143 345,143 135,0 257,-55 345,-143 88,-89 142,-211 142,-345 0,-134 -54,-257 -142,-344l0 0zm-345 -731c297,0 566,120 762,315 194,195 315,463 315,760 0,297 -121,566 -315,761 -195,195 -464,315 -762,315 -297,0 -566,-120 -761,-315 -194,-195 -315,-464 -315,-761 0,-297 121,-565 315,-760 195,-195 464,-315 761,-315l0 0zm-1877 -9466c762,-95 1538,-132 2316,-108 773,22 1545,103 2303,242l-106 578c-730,-135 -1471,-213 -2213,-234 -740,-21 -1486,15 -2228,107l-71 -584 0 0zm-7247 2960c602,-459 1242,-874 1914,-1241 664,-363 1358,-677 2076,-937l200 552c-691,251 -1358,552 -1995,900 -643,350 -1257,750 -1839,1193l-356 -467 0 0zm-4795 6207c289,-694 628,-1360 1011,-1994 388,-642 822,-1252 1298,-1826l454 374c-458,553 -875,1139 -1247,1755 -369,611 -695,1252 -971,1916l-543 -225 0 0zm-997 7953c-51,-357 -90,-717 -116,-1078 -26,-363 -39,-725 -39,-1087 0,-376 14,-753 42,-1130 28,-379 70,-753 125,-1121l582 86c-53,356 -94,716 -121,1076 -26,357 -40,720 -40,1089 0,356 13,704 38,1046 24,349 62,695 111,1036l-582 83 0 0zm3190 7300c-480,-593 -914,-1220 -1297,-1878 -382,-653 -716,-1337 -997,-2049l548 -216c270,683 590,1340 958,1968 371,636 789,1240 1246,1807l-458 367 0 0zm6413 4640c-694,-261 -1363,-573 -2005,-929 -650,-362 -1268,-769 -1851,-1216l357 -467c563,433 1158,824 1779,1170 615,342 1259,641 1926,893l-207 550 0 0zm7893 745c-424,73 -851,128 -1283,165 -428,37 -859,55 -1296,55 -326,0 -655,-10 -988,-32 -325,-21 -653,-53 -982,-96l76 -582c307,41 622,71 942,92 309,20 626,30 951,30 421,0 838,-18 1248,-53 417,-35 828,-89 1232,-157l99 579 0 0zm7072 -3275c-573,479 -1186,917 -1834,1311 -640,389 -1309,731 -2003,1021l-225 -542c672,-282 1314,-609 1925,-981 616,-374 1204,-796 1761,-1260l377 451 0 0zm4436 -6208c-260,681 -569,1341 -923,1976 -358,640 -760,1251 -1201,1826l-468 -357c427,-556 814,-1142 1156,-1754 338,-605 635,-1240 886,-1899l550 209 0 0zm808 -7681c59,378 102,761 133,1152 29,386 44,774 44,1162 0,353 -13,706 -38,1061 -24,354 -62,705 -111,1054l-581 -80c46,-333 82,-670 106,-1012 23,-334 35,-674 35,-1022 0,-379 -15,-752 -43,-1118 -28,-371 -71,-742 -127,-1108l582 -88 0 0zm-2995 -6936c453,581 867,1203 1236,1858 366,648 683,1321 948,2015l-550 210c-257,-676 -562,-1323 -909,-1937 -350,-621 -748,-1217 -1190,-1785l464 -361 0 0zm-6054 -4645c683,288 1340,625 1969,1007 633,385 1237,816 1804,1286l-374 452c-546,-454 -1125,-867 -1734,-1237 -604,-366 -1236,-689 -1893,-967l227 -540 0 0zm-4222 12271c-415,-415 -989,-673 -1623,-673 -634,0 -1208,258 -1623,673 -415,415 -673,989 -673,1623 0,634 258,1208 673,1623 415,415 989,673 1623,673 634,0 1208,-258 1623,-673 415,-415 673,-989 673,-1623 0,-634 -258,-1208 -673,-1623l0 0zm-1623 -1261c797,0 1518,322 2039,845 523,521 845,1242 845,2039 0,797 -322,1518 -845,2039 -521,523 -1242,845 -2039,845 -797,0 -1518,-322 -2039,-845 -523,-521 -845,-1242 -845,-2039 0,-797 322,-1518 845,-2039 522,-523 1242,-845 2039,-845l0 0zm-6576 18763c889,-1429 2429,-4509 3245,-6981 517,-1568 755,-2852 342,-3179 -503,-191 -1511,669 -2623,1914 -1715,1921 -3579,4741 -4378,6272l-520 -271c817,-1565 2716,-4438 4459,-6392 1298,-1454 2551,-2413 3337,-2043l27 13 17 12c704,490 502,2032 -101,3859 -830,2515 -2399,5651 -3304,7108l-500 -311 0 0zm17712 -29495c-807,1511 -2705,4377 -4440,6308 -1269,1411 -2494,2337 -3271,1972l-27 -13 -17 -12c-712,-495 -515,-2053 89,-3893 809,-2470 2331,-5523 3276,-7010l497 316c-927,1458 -2420,4454 -3215,6876 -518,1581 -752,2881 -329,3215 496,188 1476,-640 2560,-1845 1707,-1900 3569,-4710 4360,-6192l517 277 0 0zm-24964 24161c1479,-790 4411,-2771 6414,-4577 1279,-1154 2169,-2195 1983,-2692 -335,-421 -1692,-161 -3344,390 -2538,845 -5686,2407 -7149,3338l-315 -497c1488,-946 4693,-2537 7280,-3398 1913,-636 3529,-862 4023,-151l11 16 14 28c365,777 -625,2063 -2110,3404 -2034,1834 -5021,3851 -6532,4657l-275 -517 0 0zm30194 -16894c-1451,902 -4485,2410 -6928,3200 -1789,578 -3301,760 -3793,54l-10 -16 -14 -28c-369,-786 562,-2036 1984,-3325 1889,-1713 4664,-3568 6220,-4381l271 520c-1525,796 -4245,2615 -6098,4296 -1216,1102 -2052,2108 -1857,2616 329,418 1585,200 3117,-295 2395,-774 5372,-2254 6797,-3141l311 500 0 0zm-33658 8263c1690,56 5276,-155 7932,-692 1671,-338 2948,-773 3029,-1290 -83,-543 -1438,-1033 -3196,-1422 -2637,-583 -6122,-867 -7836,-794l-23 -586c1750,-74 5302,214 7987,807 2023,448 3584,1101 3658,1970l2 24 -2 24c-72,852 -1558,1448 -3504,1841 -2701,546 -6347,760 -8065,704l18 -587 0 0zm34500 585c-1708,56 -5029,-154 -7490,-689 -1815,-394 -3196,-995 -3269,-1854l-2 -24 2 -24c73,-870 1498,-1497 3363,-1913 2455,-549 5726,-781 7474,-707l-23 586c-1713,-73 -4918,156 -7325,694 -1599,357 -2819,821 -2900,1364 78,528 1256,966 2804,1303 2420,526 5675,732 7348,678l18 586 0 0zm-33116 -9550c1426,888 4604,2441 7162,3272 1638,533 2982,783 3313,366 191,-502 -669,-1510 -1914,-2622 -1922,-1715 -4741,-3579 -6272,-4378l271 -520c1565,817 4438,2716 6392,4459 1454,1298 2413,2551 2043,3337l-13 27 -11 17c-491,705 -2093,490 -3991,-126 -2601,-846 -5837,-2428 -7291,-3332l311 -500 0 0zm29824 17772c-1511,-808 -4383,-2709 -6319,-4447 -1413,-1270 -2342,-2496 -1977,-3273l13 -27 11 -17c497,-713 2040,-526 3865,68 2437,792 5446,2286 6930,3230l-315 497c-1456,-925 -4407,-2392 -6797,-3169 -1566,-508 -2852,-733 -3187,-308 -188,494 643,1477 1849,2562 1903,1710 4720,3575 6201,4366l-275 517 0 0zm-23909 -24765c793,1484 2690,4357 4425,6301 1095,1227 2085,2074 2577,1888 422,-334 183,-1641 -342,-3232 -806,-2443 -2316,-5467 -3243,-6927l497 -315c946,1488 2484,4570 3305,7058 610,1852 814,3416 101,3912l-16 12 -28 14c-776,364 -2010,-582 -3291,-2018 -1762,-1974 -3693,-4901 -4503,-6415l517 -276 0 0zm16778 30234c-906,-1457 -2475,-4593 -3304,-7107 -603,-1828 -805,-3370 -101,-3860l16 -10 28 -14c789,-370 2069,583 3393,2028 1750,1911 3646,4701 4457,6253l-520 271c-794,-1520 -2653,-4255 -4370,-6129 -1137,-1241 -2174,-2099 -2686,-1903 -414,328 -176,1612 341,3179 816,2472 2356,5552 3245,6982l-499 310 0 0zm-8405 -33537c-55,1684 151,5120 681,7670 335,1613 771,2843 1291,2924 532,-80 976,-1331 1317,-2969 524,-2520 728,-5894 655,-7621l586 -23c75,1762 -133,5199 -667,7763 -396,1909 -1003,3366 -1868,3439l-24 2 -24 -2c-855,-72 -1451,-1509 -1842,-3393 -539,-2593 -749,-6094 -693,-7807l586 18 0 0zm13743 5224c-3102,-3103 -7389,-5022 -12123,-5022 -4734,0 -9021,1919 -12123,5022 -3103,3102 -5022,7389 -5022,12123 0,4734 1919,9021 5022,12123 3102,3103 7389,5022 12123,5022 4734,0 9021,-1919 12123,-5022 3103,-3102 5022,-7389 5022,-12123 0,-4734 -1919,-9021 -5022,-12123l0 0zm-12123 -5611c4897,0 9331,1985 12540,5194 3210,3208 5194,7642 5194,12539 0,4897 -1985,9331 -5194,12540 -3208,3210 -7642,5194 -12540,5194 -4897,0 -9331,-1985 -12540,-5194 -3209,-3208 -5194,-7642 -5194,-12540 0,-4897 1985,-9331 5194,-12539 3208,-3210 7642,-5194 12540,-5194l0 0zm16423 1311c-4203,-4203 -10009,-6803 -16423,-6803 -6414,0 -12220,2600 -16423,6803 -4202,4203 -6803,10009 -6803,16423 0,6414 2600,12220 6803,16423 4202,4203 10009,6803 16423,6803 6414,0 12220,-2600 16423,-6803 4203,-4202 6803,-10009 6803,-16423 0,-6414 -2600,-12220 -6803,-16423l0 0zm-16423 -7391c6576,0 12529,2665 16839,6975 4310,4310 6975,10263 6975,16839 0,6576 -2665,12529 -6975,16839 -4310,4310 -10263,6975 -16839,6975 -6576,0 -12529,-2665 -16839,-6975 -4310,-4310 -6975,-10263 -6975,-16839 0,-6576 2665,-12529 6975,-16839 4310,-4310 10263,-6975 16839,-6975l0 0zm-2206 41040c-56,-1714 153,-5214 693,-7807 391,-1884 987,-3321 1842,-3393l24 -2 24 2c865,73 1472,1530 1868,3439 533,2565 742,6002 667,7763l-586 -23c73,-1727 -131,-5102 -655,-7622 -341,-1638 -785,-2888 -1317,-2969 -521,80 -956,1310 -1291,2924 -530,2548 -736,5986 -681,7670l-586 18 0 0z"/>
 </g>
</svg>
